<?xml version="1.0" encoding="UTF-8" standalone="no"?>
<svg
   xmlns:dc="http://purl.org/dc/elements/1.1/"
   xmlns:cc="http://creativecommons.org/ns#"
   xmlns:rdf="http://www.w3.org/1999/02/22-rdf-syntax-ns#"
   xmlns:svg="http://www.w3.org/2000/svg"
   xmlns="http://www.w3.org/2000/svg"
   viewBox="0 0 816 1056"
   height="1056"
   width="816"
   xml:space="preserve"
   id="svg2"
   version="1.1"><metadata
     id="metadata8"><rdf:RDF><cc:Work
         rdf:about=""><dc:format>image/svg+xml</dc:format><dc:type
           rdf:resource="http://purl.org/dc/dcmitype/StillImage" /></cc:Work></rdf:RDF></metadata><defs
     id="defs6"><clipPath
       id="clipPath26"
       clipPathUnits="userSpaceOnUse"><path
         id="path24"
         d="M 0,792 H 612 V 0 H 0 Z" /></clipPath></defs><g
     transform="matrix(1.3333333,0,0,-1.3333333,0,1056)"
     id="g10"><g
       transform="translate(397.3516,577.1016)"
       id="g12"><path
         id="path14"
         style="fill:#367fc2;fill-opacity:1;fill-rule:nonzero;stroke:none"
         d="m 0,0 -34.661,-46.081 -11.812,-115.032 35.425,31.998 z" /></g><g
       transform="translate(222.9082,577.1016)"
       id="g16"><path
         id="path18"
         style="fill:#367fc2;fill-opacity:1;fill-rule:nonzero;stroke:none"
         d="m 0,0 34.662,-46.081 11.811,-115.032 -35.424,31.998 z" /></g><g
       id="g20"><g
         clip-path="url(#clipPath26)"
         id="g22"><g
           transform="translate(397.3516,588.9126)"
           id="g28"><path
             id="path30"
             style="fill:#82b5e2;fill-opacity:1;fill-rule:nonzero;stroke:none"
             d="M 0,0 H -47.997 L -87.224,-53.706 -126.446,0 h -47.997 l 63.216,-87.601 -17.506,-22.474 c 0,0 5.67,-53.074 6.685,-63.628 0.123,-1.192 34.824,50.682 34.824,50.682 0,0 34.705,-51.874 34.828,-50.682 1.017,10.554 6.686,63.628 6.686,63.628 l -17.523,22.474 z" /></g></g></g></g></svg>