<?xml version="1.0" encoding="UTF-8" standalone="no"?>
<svg
   xmlns:dc="http://purl.org/dc/elements/1.1/"
   xmlns:cc="http://creativecommons.org/ns#"
   xmlns:rdf="http://www.w3.org/1999/02/22-rdf-syntax-ns#"
   xmlns:svg="http://www.w3.org/2000/svg"
   xmlns="http://www.w3.org/2000/svg"
   xmlns:sodipodi="http://sodipodi.sourceforge.net/DTD/sodipodi-0.dtd"
   xmlns:inkscape="http://www.inkscape.org/namespaces/inkscape"
   viewBox="0 0 816 400"
   height="400"
   width="816"
   xml:space="preserve"
   id="svg2"
   version="1.1"
   sodipodi:docname="Logo.svg"
   inkscape:version="0.92.4 (5da689c313, 2019-01-14)"><sodipodi:namedview
     pagecolor="#ffffff"
     bordercolor="#666666"
     borderopacity="1"
     objecttolerance="10"
     gridtolerance="10"
     guidetolerance="10"
     inkscape:pageopacity="0"
     inkscape:pageshadow="2"
     inkscape:window-width="1366"
     inkscape:window-height="705"
     id="namedview3743"
     showgrid="false"
     inkscape:zoom="0.50757576"
     inkscape:cx="371.82859"
     inkscape:cy="305.81877"
     inkscape:window-x="-8"
     inkscape:window-y="-8"
     inkscape:window-maximized="1"
     inkscape:current-layer="g10" /><metadata
     id="metadata8"><rdf:RDF><cc:Work
         rdf:about=""><dc:format>image/svg+xml</dc:format><dc:type
           rdf:resource="http://purl.org/dc/dcmitype/StillImage" /><dc:title></dc:title></cc:Work></rdf:RDF></metadata><defs
     id="defs6"><clipPath
       id="clipPath26"
       clipPathUnits="userSpaceOnUse"><path
         id="path24"
         d="M 0,792 H 612 V 0 H 0 Z"
         inkscape:connector-curvature="0" /></clipPath></defs><g
     transform="matrix(1.3333333,0,0,-1.3333333,-222.62687,197.07463)"
     id="g10"><g
       transform="translate(385.5307,74.713531)"
       id="g12"
       style="fill:#d45500"><path
         id="path14"
         style="fill:#d45500;fill-opacity:1;fill-rule:nonzero;stroke:none"
         d="m 0,0 -34.661,-46.081 -11.812,-115.032 35.425,31.998 z"
         inkscape:connector-curvature="0" /></g><g
       transform="translate(211.0873,74.713531)"
       id="g16"
       style="fill:#d45500"><path
         id="path18"
         style="fill:#d45500;fill-opacity:1;fill-rule:nonzero;stroke:none"
         d="m 0,0 34.662,-46.081 11.811,-115.032 -35.424,31.998 z"
         inkscape:connector-curvature="0" /></g><g
       id="g20"
       transform="translate(-11.820896,-502.38807)"><g
         clip-path="url(#clipPath26)"
         id="g22"><g
           transform="translate(397.3516,588.9126)"
           id="g28"><path
             id="path30"
             style="fill:#ff6600;fill-opacity:1;fill-rule:nonzero;stroke:none"
             d="M 0,0 H -47.997 L -87.224,-53.706 -126.446,0 h -47.997 l 63.216,-87.601 -17.506,-22.474 c 0,0 5.67,-53.074 6.685,-63.628 0.123,-1.192 34.824,50.682 34.824,50.682 0,0 34.705,-51.874 34.828,-50.682 1.017,10.554 6.686,63.628 6.686,63.628 l -17.523,22.474 z"
             inkscape:connector-curvature="0" /></g></g></g><path
       style="fill:#d45500;stroke-width:1.47761202"
       d="m 340.34354,-81.301296 c 0.0346,1.887135 2.55815,27.368461 5.60785,56.625182 l 5.54492,53.194029 16.71069,22.164176 16.71069,22.16418 -0.90705,-8.86567 c -0.49889,-4.87612 -2.91361,-32.802984 -5.36605,-62.059704 -2.45244,-29.256714 -4.6072,-53.872209 -4.78835,-54.701094 -0.18114,-0.828878 -7.80977,-8.357228 -16.9525,-16.729658 -13.88545,-12.715583 -16.61277,-14.657521 -16.5602,-11.791441 z"
       id="path3747"
       inkscape:connector-curvature="0" /><path
       style="fill:#d45500;stroke-width:1.47761202"
       d="m 238.50752,-68.234413 c -14.29182,12.987301 -16.44146,15.549653 -16.4787,19.642493 -0.0236,2.588768 -2.29904,30.635281 -5.05664,62.325587 -2.75759,31.690304 -4.89426,57.738274 -4.74816,57.884384 0.14611,0.1461 7.62784,-9.49165 16.62607,-21.41725 l 16.36042,-21.682886 5.59958,-55.110842 c 3.07977,-30.310965 5.26967,-55.440759 4.86644,-55.843989 -0.40323,-0.403222 -8.12928,5.987903 -17.16901,14.202503 z"
       id="path3749"
       inkscape:connector-curvature="0" /><path
       style="fill:#ff7f2a;stroke-width:1.47761202"
       d="m 260.60867,-54.778647 -3.28878,31.041443 8.7851,11.356245 8.78511,11.356238 -30.84206,42.784192 c -16.96313,23.5313 -30.84206,42.97821 -30.84206,43.21535 0,0.23713 10.47257,0.39526 23.27239,0.35139 l 23.27239,-0.0798 19.12083,-26.48225 c 10.51646,-14.56523 19.49294,-26.125929 19.94776,-25.690426 0.45481,0.435496 9.19586,12.222176 19.42455,26.192606 l 18.59761,25.40079 23.14493,0.40692 c 12.72971,0.22381 23.14492,0.0658 23.14492,-0.35117 0,-0.41696 -12.86604,-18.55306 -28.59122,-40.30245 C 338.81498,22.67104 325.07399,3.459954 324.00462,1.729127 c -1.76834,-2.862143 -1.18666,-4.122046 6.42703,-13.920856 4.60424,-5.925645 8.36073,-12.156158 8.34775,-13.845585 -0.0427,-5.5671 -5.82675,-57.436952 -6.47731,-58.087517 -0.35018,-0.350182 -8.11446,10.342396 -17.25396,23.761253 -16.37964,24.049061 -16.65281,24.351911 -19.10161,21.177049 -1.36639,-1.771516 -8.01306,-11.532496 -14.77039,-21.691081 -6.75733,-10.158585 -13.40939,-19.926428 -14.78236,-21.706313 -2.39119,-3.099878 -2.63483,-1.928888 -5.7851,27.805276 z"
       id="path3751"
       inkscape:connector-curvature="0" /><path
       style="fill:#d45500;stroke-width:1.47761202"
       d="m 242.01942,-70.261588 c -21.07082,18.693188 -18.31887,9.90072 -23.87,76.264577 -2.6673,31.887692 -4.87075,59.245202 -4.89654,60.794482 -0.0281,1.68421 4.7109,-3.366 11.78557,-12.5597 21.71991,-28.225531 18.97782,-19.79657 24.6042,-75.631353 2.72062,-26.99868 4.77807,-51.398476 4.57212,-54.221768 l -0.37446,-5.133278 z"
       id="path3753"
       inkscape:connector-curvature="0" /><text
       xml:space="preserve"
       style="font-style:normal;font-weight:normal;font-size:30px;line-height:1.25;font-family:sans-serif;letter-spacing:0px;word-spacing:0px;fill:#000000;fill-opacity:1;stroke:none;stroke-width:0.75"
       x="396.00003"
       y="22.164167"
       id="text3757"
       transform="scale(1,-1)"><tspan
         sodipodi:role="line"
         id="tspan3755"
         x="396.00003"
         y="22.164167"
         style="font-size:90px;stroke-width:0.75;fill:#e6e6e6">MEXIHC</tspan></text>
</g></svg>